<?xml version="1.0" encoding="UTF-8"?>
<svg id="Camada_1" data-name="Camada 1" xmlns="http://www.w3.org/2000/svg" viewBox="0 0 2000 2000">
  <defs>
    <style>
      .cls-1 {
        fill: #fff;
      }
    </style>
  </defs>
  <g>
    <path class="cls-1" d="M166.63,1498.13v-.38c0-37.56,28.08-68.67,66.4-68.67,23.71,0,37.94,8.73,51.6,21.25l-7.02,7.21c-11.57-11.19-24.85-19.54-44.77-19.54-31.87,0-55.96,25.99-55.96,59.38v.38c0,33.58,24.47,59.76,56.15,59.76,19.16,0,32.25-7.4,45.72-20.68l6.64,6.45c-14.04,13.85-29.22,23.14-52.74,23.14-37.94,0-66.02-30.16-66.02-68.3Z"/>
    <path class="cls-1" d="M295.05,1498.13v-.38c0-36.23,26.75-68.67,66.97-68.67s66.59,32.06,66.59,68.3v.38c0,36.23-26.75,68.67-66.97,68.67s-66.59-32.06-66.59-68.3Zm123.31,0v-.38c0-32.82-23.9-59.76-56.72-59.76s-56.34,26.56-56.34,59.38v.38c0,32.82,23.9,59.76,56.72,59.76s56.34-26.56,56.34-59.38Z"/>
    <path class="cls-1" d="M454.39,1431.35h9.3l91.63,115.53v-115.53h9.49v132.8h-7.4l-93.53-118v118h-9.49v-132.8Z"/>
    <path class="cls-1" d="M587.93,1544.8l6.45-7.4c14.61,13.47,28.08,19.73,47.62,19.73s33.58-11.19,33.58-26.37v-.38c0-14.04-7.4-22.2-37.56-28.27-31.87-6.45-44.77-17.26-44.77-37.37v-.38c0-19.73,18.02-34.91,42.68-34.91,19.35,0,32.06,5.31,45.53,16.12l-6.26,7.78c-12.52-10.81-25.04-14.99-39.65-14.99-19.54,0-32.44,11.19-32.44,25.04v.38c0,14.04,7.21,22.57,38.7,29.03,30.73,6.26,43.63,17.26,43.63,36.61v.38c0,21.44-18.4,36.23-44.01,36.23-21.25,0-37.56-7.02-53.5-21.25Z"/>
    <path class="cls-1" d="M708,1508.94v-77.59h9.86v76.64c0,31.3,16.88,49.33,44.96,49.33s44.2-16.32,44.2-48.38v-77.59h9.87v76.45c0,38.13-22.2,58.43-54.45,58.43s-54.45-20.11-54.45-57.29Z"/>
    <path class="cls-1" d="M846.48,1431.35h9.87v123.69h77.97v9.11h-87.83v-132.8Z"/>
    <path class="cls-1" d="M973.95,1440.46h-46.29v-9.11h102.44v9.11h-46.29v123.69h-9.86v-123.69Z"/>
    <path class="cls-1" d="M1053.62,1431.35h9.86v132.8h-9.86v-132.8Z"/>
    <path class="cls-1" d="M1096.49,1431.35h9.3l91.63,115.53v-115.53h9.49v132.8h-7.4l-93.53-118v118h-9.49v-132.8Z"/>
    <path class="cls-1" d="M1232.68,1498.13v-.38c0-35.86,25.99-68.67,65.64-68.67,21.63,0,35.29,6.45,48.57,17.45l-6.45,7.4c-10.43-9.11-22.57-15.94-42.68-15.94-32.25,0-54.83,27.32-54.83,59.38v.38c0,34.34,21.44,59.95,56.91,59.95,16.88,0,32.63-7.02,42.3-15.18v-38.13h-44.39v-9.11h53.88v51.22c-11.95,10.62-30.54,19.92-52.17,19.92-41.93,0-66.78-30.92-66.78-68.3Z"/>
  </g>
  <g>
    <path class="cls-1" d="M1388.87,1565v-134.89h26.5l55.21,90.08v-90.08h25.3v134.89h-27.33l-54.38-87.96v87.96h-25.3Z"/>
    <path class="cls-1" d="M1528.01,1498.38c0-13.74,2.06-25.27,6.17-34.6,3.07-6.87,7.25-13.03,12.56-18.5,5.31-5.46,11.12-9.51,17.44-12.15,8.4-3.56,18.09-5.34,29.08-5.34,19.87,0,35.78,6.16,47.71,18.49,11.93,12.33,17.9,29.48,17.9,51.44s-5.92,38.81-17.76,51.11c-11.84,12.3-27.67,18.45-47.48,18.45s-36.01-6.12-47.85-18.36c-11.84-12.24-17.76-29.09-17.76-50.56Zm28.06-.92c0,15.27,3.53,26.85,10.58,34.73,7.05,7.88,16.01,11.82,26.87,11.82s19.77-3.91,26.73-11.73c6.96-7.82,10.44-19.55,10.44-35.19s-3.39-26.99-10.17-34.6c-6.78-7.61-15.78-11.41-27.01-11.41s-20.27,3.85-27.14,11.55c-6.87,7.7-10.31,19.31-10.31,34.83Z"/>
    <path class="cls-1" d="M1708.1,1565l-32.2-134.89h27.88l20.34,92.66,24.66-92.66h32.39l23.65,94.22,20.7-94.22h27.42l-32.76,134.89h-28.89l-26.87-100.85-26.78,100.85h-29.54Z"/>
  </g>
  <g>
    <path class="cls-1" d="M1845.17,828.26c.13-64.32-11.58-126.07-35.2-185.96-79.92-202.62-301.14-327.64-516.41-291.27-230.76,38.99-399.52,235.38-401.6,468.39-.81,90.35-38.39,159.91-109.77,211.49l117.74,194.1c130.7-84.82,201.96-205.83,218.84-360.22,3-27.43,.51-55.03,4.84-82.45,20.73-131.09,148.1-225.93,278.92-207.11,122.71,17.65,214.58,123.53,214.74,247.55,.12,87.17-1.2,174.37,.63,261.5,2.32,110.8,99.55,208.17,210.42,213.54,16.63,.81,16.73,.81,16.73-15.94,.03-151.22-.18-302.43,.12-453.65Z"/>
    <path class="cls-1" d="M764.45,1041.87c-46.46,24.25-95.56,35.28-148.97,29.52-134.51-14.5-235.91-140.49-220.17-274.9,20.73-176.98,210.7-276.66,367.31-192.4,9.06,4.87,12.16,3.13,17.02-4.96,34.77-57.92,69.87-115.63,105.41-173.08,5.42-8.75,4.87-12.29-4.42-17.5-98.69-55.43-204.05-73.68-315.37-55.63-259.11,42.01-447.07,292.89-387.85,570.52,55.67,260.98,310.27,422.76,571,366,47.52-10.34,92.79-26.97,134.13-52.86l-118.1-194.7Z"/>
  </g>
  <g>
    <path class="cls-1" d="M299.46,1654.61c-.8,3.7-2.34,6.52-4.57,8.37-2.23,1.85-5,2.79-8.23,2.79-2.67,0-5.18-.7-7.47-2.07-2.27-1.36-3.96-3.45-5.04-6.21-1.1-2.82-1.66-6.18-1.66-9.99,0-2.94,.47-5.84,1.41-8.61,.91-2.71,2.51-4.89,4.76-6.49,2.25-1.6,5.1-2.42,8.47-2.42,2.91,0,5.35,.72,7.25,2.16,1.91,1.43,3.39,3.78,4.41,6.98l.18,.57,7.23-1.7-.19-.66c-1.27-4.36-3.55-7.79-6.78-10.21-3.24-2.41-7.27-3.64-11.98-3.64-4.14,0-7.99,.96-11.45,2.85-3.47,1.91-6.19,4.72-8.07,8.39-1.86,3.63-2.81,7.95-2.81,12.81,0,4.45,.83,8.68,2.48,12.56,1.66,3.92,4.13,6.97,7.32,9.05,3.19,2.08,7.37,3.13,12.43,3.13s9.13-1.37,12.54-4.07c3.41-2.7,5.8-6.66,7.1-11.77l.16-.63-7.36-1.86-.14,.66Z"/>
    <path class="cls-1" d="M350.66,1626.59c-3.5-2.08-7.46-3.13-11.8-3.13-6.63,0-12.12,2.24-16.32,6.67-4.19,4.41-6.32,10.59-6.32,18.35,0,4.11,.91,8.07,2.7,11.75,1.8,3.71,4.48,6.68,7.98,8.82,3.49,2.14,7.51,3.23,11.93,3.23,4.08,0,7.94-.98,11.46-2.92,3.55-1.94,6.32-4.84,8.25-8.62,1.92-3.75,2.89-8.06,2.89-12.79s-.92-8.92-2.74-12.61c-1.83-3.72-4.54-6.66-8.03-8.75Zm3.21,21.33c0,5.71-1.43,10.17-4.26,13.25-2.81,3.06-6.45,4.61-10.81,4.61s-7.89-1.54-10.72-4.57c-2.84-3.05-4.29-7.3-4.29-12.63,0-6.7,1.5-11.52,4.45-14.33,2.96-2.82,6.55-4.25,10.66-4.25,2.89,0,5.52,.74,7.84,2.2,2.31,1.46,4.09,3.55,5.3,6.21,1.22,2.69,1.84,5.9,1.84,9.52Z"/>
    <polygon class="cls-1" points="403.33 1658.84 380.21 1624.27 372.98 1624.27 372.98 1671.5 380.1 1671.5 380.1 1636.9 403.22 1671.5 410.45 1671.5 410.45 1624.27 403.33 1624.27 403.33 1658.84"/>
    <path class="cls-1" d="M452.01,1646.07c-1.87-.85-5.34-1.85-10.29-2.97-5.98-1.35-8.12-2.44-8.87-3.12-1.06-.94-1.57-2.12-1.57-3.59,0-1.71,.74-3.14,2.28-4.36,1.55-1.24,4.12-1.88,7.63-1.88s5.91,.7,7.59,2.08c1.66,1.37,2.65,3.43,2.94,6.14l.07,.63,7.08-.53-.02-.63c-.11-2.8-.9-5.34-2.36-7.57-1.47-2.23-3.58-3.94-6.29-5.08-2.67-1.13-5.78-1.7-9.26-1.7-3.16,0-6.08,.54-8.67,1.62-2.64,1.09-4.68,2.72-6.06,4.83-1.38,2.12-2.08,4.42-2.08,6.86,0,2.22,.58,4.26,1.71,6.06,1.13,1.79,2.86,3.31,5.15,4.5,1.76,.93,4.71,1.89,9.02,2.92,4.17,1,6.89,1.75,8.1,2.22,1.8,.68,3.09,1.52,3.85,2.5,.75,.97,1.12,2.07,1.12,3.38s-.39,2.45-1.18,3.55c-.78,1.09-2.02,1.97-3.67,2.61-1.69,.66-3.68,.99-5.9,.99-2.51,0-4.79-.44-6.79-1.31-1.96-.85-3.42-1.98-4.34-3.34-.93-1.38-1.53-3.18-1.79-5.36l-.07-.63-6.97,.61,.02,.61c.09,3.18,.97,6.07,2.63,8.59,1.66,2.53,3.98,4.45,6.9,5.71,2.88,1.24,6.47,1.87,10.7,1.87,3.36,0,6.43-.62,9.12-1.86,2.72-1.24,4.84-3.02,6.31-5.28,1.46-2.26,2.2-4.7,2.2-7.26s-.68-4.9-2.02-6.89c-1.34-1.98-3.42-3.63-6.19-4.91Z"/>
    <path class="cls-1" d="M502.42,1651.43c0,5.57-.9,9.35-2.67,11.24-1.76,1.88-4.82,2.83-9.08,2.83-2.49,0-4.61-.49-6.3-1.45-1.69-.96-2.85-2.28-3.54-4.04-.71-1.8-1.06-4.69-1.06-8.58v-27.15h-7.38v27.18c0,4.93,.61,8.89,1.81,11.76,1.22,2.94,3.29,5.21,6.15,6.76,2.82,1.53,6.47,2.3,10.86,2.3s8.26-.89,11.08-2.65c2.83-1.77,4.83-4.11,5.92-6.94,1.07-2.77,1.61-6.55,1.61-11.23v-27.18h-7.38v27.15Z"/>
    <polygon class="cls-1" points="530.81 1624.27 523.43 1624.27 523.43 1671.5 553.42 1671.5 553.42 1664.78 530.81 1664.78 530.81 1624.27"/>
    <polygon class="cls-1" points="556.22 1631 571.35 1631 571.35 1671.5 578.73 1671.5 578.73 1631 593.92 1631 593.92 1624.27 556.22 1624.27 556.22 1631"/>
    <path class="cls-1" d="M635.35,1626.59c-3.5-2.08-7.46-3.13-11.8-3.13-6.63,0-12.12,2.24-16.32,6.67-4.19,4.41-6.32,10.59-6.32,18.35,0,4.11,.91,8.07,2.7,11.75,1.8,3.71,4.48,6.68,7.98,8.82,3.49,2.14,7.51,3.23,11.93,3.23,4.08,0,7.94-.98,11.46-2.92,3.55-1.94,6.32-4.84,8.25-8.62,1.92-3.75,2.89-8.06,2.89-12.79s-.92-8.92-2.74-12.61c-1.83-3.72-4.54-6.66-8.03-8.75Zm3.21,21.33c0,5.71-1.43,10.17-4.26,13.25-2.81,3.06-6.45,4.61-10.81,4.61s-7.89-1.54-10.72-4.57c-2.84-3.05-4.29-7.3-4.29-12.63,0-6.7,1.5-11.52,4.45-14.33,2.96-2.82,6.55-4.25,10.66-4.25,2.89,0,5.52,.74,7.84,2.2,2.31,1.46,4.09,3.55,5.3,6.21,1.22,2.69,1.84,5.9,1.84,9.52Z"/>
    <path class="cls-1" d="M686.35,1651.76c-.55-.49-1.25-.99-2.1-1.49,3.6-.75,6.37-2.14,8.25-4.13,2.22-2.35,3.34-5.27,3.34-8.68,0-2.64-.68-5.08-2.01-7.26-1.35-2.21-3.17-3.77-5.43-4.64-2.2-.85-5.42-1.28-9.57-1.28h-21.01v47.22h7.38v-20.39h6.4c1.51,0,2.61,.07,3.23,.2,.86,.21,1.73,.59,2.58,1.14,.84,.54,1.83,1.53,2.93,2.92,1.13,1.44,2.59,3.55,4.35,6.27l6.27,9.86h9.19l-8.63-13.5c-1.61-2.48-3.35-4.58-5.15-6.24Zm.8-10.53c-.73,1.14-1.82,1.98-3.25,2.5-1.49,.54-3.6,.82-6.29,.82h-12.41v-13.89h13.88c3.22,0,5.59,.65,7.04,1.93,1.45,1.28,2.15,2.88,2.15,4.87,0,1.37-.37,2.6-1.12,3.77Z"/>
    <rect class="cls-1" x="710.16" y="1624.27" width="7.38" height="47.22"/>
    <path class="cls-1" d="M744.81,1624.27l-18.13,47.22h7.85l5.04-13.91h18.3l5.35,13.91h8.34l-19.32-47.22h-7.43Zm10.69,27.07h-13.69l4.71-12.6c.78-2.11,1.44-4.27,1.97-6.44,.66,2.04,1.5,4.42,2.55,7.2l4.46,11.84Z"/>
    <polygon class="cls-1" points="806.72 1650.45 832.12 1650.45 832.12 1643.76 806.72 1643.76 806.72 1631 833.85 1631 833.85 1624.27 799.34 1624.27 799.34 1671.5 834.91 1671.5 834.91 1664.78 806.72 1664.78 806.72 1650.45"/>
    <path class="cls-1" d="M871.57,1656.66c-.74,2.15-1.34,3.96-1.82,5.42-.42-1.31-.94-2.93-1.58-4.85l-10.87-32.51-.15-.44h-10.26v47.22h7.16v-35.81l12.17,35.81h6.41l12.23-35.23v35.23h7.16v-47.22h-9.29l-11.14,32.39Z"/>
    <path class="cls-1" d="M949.96,1653.49h13.5v7.6c-1.23,1.03-3.01,2.02-5.29,2.94-5.18,2.1-10.91,1.94-15.75-.46-2.55-1.27-4.53-3.24-5.87-5.86-1.36-2.65-2.04-6.01-2.04-9.98,0-3.22,.57-6.25,1.7-8.99,.66-1.58,1.6-3.05,2.78-4.36,1.17-1.3,2.74-2.37,4.67-3.17,1.94-.81,4.28-1.22,6.95-1.22,2.22,0,4.26,.39,6.07,1.16,1.79,.75,3.17,1.77,4.13,3.01,.97,1.27,1.8,3.05,2.46,5.3l.18,.61,6.72-1.84-.16-.62c-.82-3.17-2.03-5.78-3.6-7.76-1.59-2-3.8-3.58-6.58-4.7-2.75-1.1-5.86-1.66-9.25-1.66-4.66,0-8.84,.98-12.43,2.9-3.62,1.94-6.42,4.94-8.34,8.92-1.9,3.94-2.87,8.25-2.87,12.8s.97,8.81,2.89,12.54c1.93,3.76,4.83,6.67,8.62,8.66,3.76,1.97,8,2.97,12.6,2.97,3.41,0,6.77-.62,10-1.84,3.23-1.22,6.39-3.06,9.42-5.47l.24-.2v-18l-20.75,.03v6.69Z"/>
    <polygon class="cls-1" points="990.94 1650.45 1016.34 1650.45 1016.34 1643.76 990.94 1643.76 990.94 1631 1018.06 1631 1018.06 1624.27 983.56 1624.27 983.56 1671.5 1019.13 1671.5 1019.13 1664.78 990.94 1664.78 990.94 1650.45"/>
    <path class="cls-1" d="M1058.87,1646.07c-1.87-.85-5.34-1.85-10.29-2.97-5.98-1.35-8.12-2.44-8.87-3.12-1.06-.94-1.57-2.12-1.57-3.59,0-1.71,.74-3.14,2.28-4.36,1.55-1.24,4.12-1.88,7.63-1.88s5.91,.7,7.59,2.08c1.66,1.37,2.65,3.43,2.94,6.14l.07,.63,7.08-.53-.02-.63c-.11-2.8-.9-5.34-2.36-7.57-1.47-2.23-3.58-3.94-6.29-5.08-2.67-1.13-5.78-1.7-9.26-1.7-3.16,0-6.08,.54-8.67,1.62-2.64,1.09-4.68,2.72-6.06,4.83-1.38,2.12-2.08,4.42-2.08,6.86,0,2.22,.58,4.26,1.71,6.06,1.13,1.79,2.86,3.31,5.15,4.5,1.76,.93,4.71,1.89,9.02,2.92,4.17,1,6.89,1.75,8.1,2.22,1.8,.68,3.09,1.52,3.85,2.5,.75,.97,1.12,2.07,1.12,3.38s-.39,2.45-1.18,3.55c-.78,1.09-2.02,1.97-3.67,2.61-1.69,.66-3.68,.99-5.9,.99-2.51,0-4.79-.44-6.79-1.31-1.96-.85-3.42-1.98-4.34-3.34-.93-1.38-1.53-3.18-1.79-5.36l-.07-.63-6.97,.61,.02,.61c.09,3.18,.97,6.07,2.63,8.59,1.66,2.53,3.98,4.45,6.9,5.71,2.88,1.24,6.47,1.87,10.7,1.87,3.36,0,6.43-.62,9.12-1.86,2.72-1.24,4.84-3.02,6.31-5.28,1.46-2.26,2.2-4.7,2.2-7.26s-.68-4.9-2.02-6.89c-1.34-1.98-3.42-3.63-6.19-4.91Z"/>
    <polygon class="cls-1" points="1075.7 1631 1090.83 1631 1090.83 1671.5 1098.21 1671.5 1098.21 1631 1113.4 1631 1113.4 1624.27 1075.7 1624.27 1075.7 1631"/>
    <path class="cls-1" d="M1136.19,1624.27l-18.13,47.22h7.85l5.04-13.91h18.3l5.35,13.91h8.34l-19.32-47.22h-7.43Zm10.69,27.07h-13.69l4.71-12.6c.78-2.11,1.44-4.27,1.97-6.44,.66,2.04,1.5,4.42,2.55,7.2l4.46,11.84Z"/>
    <path class="cls-1" d="M1134.86,1622.76l-.02-.67c-.02-.8,.14-1.4,.5-1.78,.31-.36,.71-.53,1.23-.53,.37,0,1.15,.18,2.76,1.05,2.27,1.23,4.07,1.83,5.51,1.83,1.93,0,3.55-.67,4.81-1.99,1.25-1.31,1.92-3.26,1.98-5.79l.02-.67h-5.31l-.08,.56c-.16,1.23-.43,1.66-.57,1.81-.52,.54-1.7,.51-3.72-.52-2.35-1.18-4.18-1.76-5.59-1.76-2.04,0-3.74,.72-5.05,2.15-1.32,1.42-1.98,3.32-1.96,5.65v.64h5.48Z"/>
    <path class="cls-1" d="M1203.84,1626.59c-3.5-2.08-7.46-3.13-11.8-3.13-6.63,0-12.12,2.24-16.32,6.67-4.19,4.41-6.32,10.59-6.32,18.35,0,4.11,.91,8.07,2.7,11.75,1.8,3.71,4.48,6.68,7.98,8.82,3.49,2.14,7.51,3.23,11.93,3.23,4.08,0,7.94-.98,11.46-2.92,3.55-1.94,6.32-4.84,8.25-8.62,1.92-3.75,2.89-8.06,2.89-12.79s-.92-8.92-2.74-12.61c-1.83-3.72-4.54-6.66-8.03-8.75Zm3.21,21.33c0,5.71-1.43,10.17-4.26,13.25-2.81,3.06-6.45,4.61-10.81,4.61s-7.89-1.54-10.72-4.57c-2.84-3.05-4.29-7.3-4.29-12.63,0-6.7,1.5-11.52,4.45-14.33,2.96-2.82,6.55-4.25,10.66-4.25,2.89,0,5.52,.74,7.84,2.2,2.31,1.46,4.09,3.55,5.3,6.21,1.22,2.69,1.84,5.9,1.84,9.52Z"/>
    <polygon class="cls-1" points="1256.61 1650.45 1282.01 1650.45 1282.01 1643.76 1256.61 1643.76 1256.61 1631 1283.74 1631 1283.74 1624.27 1249.23 1624.27 1249.23 1671.5 1284.8 1671.5 1284.8 1664.78 1256.61 1664.78 1256.61 1650.45"/>
    <path class="cls-1" d="M1321.46,1656.66c-.74,2.15-1.34,3.96-1.82,5.42-.42-1.31-.94-2.93-1.58-4.85l-10.87-32.51-.15-.44h-10.26v47.22h7.16v-35.81l12.17,35.81h6.41l12.23-35.23v35.23h7.16v-47.22h-9.29l-11.14,32.39Z"/>
    <path class="cls-1" d="M1386.46,1626.97c-1.6-1.1-3.59-1.86-5.92-2.25-1.64-.3-4.03-.45-7.1-.45h-17.97v47.22h7.38v-18.67h11.13c6.65,0,11.34-1.44,13.95-4.27,2.59-2.82,3.9-6.3,3.9-10.35,0-2.36-.49-4.57-1.46-6.55-.98-1.99-2.29-3.57-3.89-4.68Zm-12.4,19.13h-11.22v-15.11h11.1c2.69,0,4.54,.13,5.5,.38,1.45,.4,2.59,1.21,3.48,2.46,.89,1.25,1.34,2.78,1.34,4.56,0,2.48-.74,4.34-2.26,5.68-1.52,1.35-4.19,2.03-7.93,2.03Z"/>
    <path class="cls-1" d="M1431.94,1651.76c-.55-.49-1.25-.99-2.1-1.49,3.6-.75,6.37-2.14,8.25-4.13,2.22-2.35,3.34-5.27,3.34-8.68,0-2.64-.68-5.08-2.01-7.26-1.35-2.21-3.17-3.77-5.43-4.64-2.2-.85-5.42-1.28-9.57-1.28h-21.01v47.22h7.38v-20.39h6.4c1.51,0,2.61,.07,3.23,.2,.86,.21,1.73,.59,2.58,1.14,.84,.54,1.83,1.53,2.93,2.92,1.13,1.44,2.59,3.55,4.35,6.27l6.27,9.86h9.19l-8.63-13.5c-1.61-2.48-3.35-4.58-5.15-6.24Zm.8-10.53c-.73,1.14-1.82,1.98-3.25,2.5-1.49,.54-3.6,.82-6.29,.82h-12.41v-13.89h13.88c3.22,0,5.59,.65,7.04,1.93,1.45,1.28,2.15,2.88,2.15,4.87,0,1.37-.37,2.6-1.12,3.77Z"/>
    <polygon class="cls-1" points="1462.22 1650.45 1487.62 1650.45 1487.62 1643.76 1462.22 1643.76 1462.22 1631 1489.35 1631 1489.35 1624.27 1454.84 1624.27 1454.84 1671.5 1490.41 1671.5 1490.41 1664.78 1462.22 1664.78 1462.22 1650.45"/>
    <path class="cls-1" d="M1530.15,1646.07c-1.87-.85-5.34-1.85-10.29-2.97-5.98-1.35-8.12-2.44-8.87-3.12-1.06-.94-1.57-2.12-1.57-3.59,0-1.71,.74-3.14,2.28-4.36,1.55-1.24,4.12-1.88,7.63-1.88s5.91,.7,7.59,2.08c1.66,1.37,2.65,3.43,2.94,6.14l.07,.63,7.08-.53-.02-.63c-.11-2.8-.9-5.34-2.36-7.57-1.47-2.23-3.58-3.94-6.29-5.08-2.67-1.13-5.78-1.7-9.26-1.7-3.16,0-6.08,.54-8.67,1.62-2.64,1.09-4.68,2.72-6.06,4.83-1.38,2.12-2.08,4.42-2.08,6.86,0,2.22,.58,4.26,1.71,6.06,1.13,1.79,2.86,3.31,5.15,4.5,1.76,.93,4.71,1.89,9.02,2.92,4.17,1,6.89,1.75,8.1,2.22,1.8,.68,3.09,1.52,3.85,2.5,.75,.97,1.12,2.07,1.12,3.38s-.39,2.45-1.18,3.55c-.78,1.09-2.02,1.97-3.67,2.61-1.69,.66-3.68,.99-5.9,.99-2.51,0-4.79-.44-6.79-1.31-1.96-.85-3.42-1.98-4.34-3.34-.93-1.38-1.53-3.18-1.79-5.36l-.07-.63-6.97,.61,.02,.61c.09,3.18,.97,6.07,2.63,8.59,1.66,2.53,3.98,4.45,6.9,5.71,2.88,1.24,6.47,1.87,10.7,1.87,3.36,0,6.43-.62,9.12-1.86,2.72-1.24,4.84-3.02,6.31-5.28,1.46-2.26,2.2-4.7,2.2-7.26s-.68-4.9-2.02-6.89c-1.34-1.98-3.42-3.63-6.19-4.91Z"/>
    <path class="cls-1" d="M1563.22,1624.27l-18.13,47.22h7.85l5.04-13.91h18.3l5.35,13.91h8.34l-19.32-47.22h-7.43Zm10.69,27.07h-13.69l4.71-12.6c.78-2.11,1.44-4.27,1.97-6.44,.66,2.04,1.5,4.42,2.55,7.2l4.46,11.84Z"/>
    <path class="cls-1" d="M1626.9,1651.76c-.55-.49-1.25-.99-2.1-1.49,3.6-.75,6.37-2.14,8.25-4.13,2.22-2.35,3.34-5.27,3.34-8.68,0-2.64-.68-5.08-2.01-7.26-1.35-2.21-3.17-3.77-5.43-4.64-2.2-.85-5.42-1.28-9.57-1.28h-21.01v47.22h7.38v-20.39h6.4c1.51,0,2.61,.07,3.23,.2,.86,.21,1.73,.59,2.58,1.14,.84,.54,1.83,1.53,2.93,2.92,1.13,1.44,2.59,3.55,4.35,6.27l6.27,9.86h9.19l-8.63-13.5c-1.61-2.48-3.35-4.58-5.15-6.24Zm.8-10.53c-.73,1.14-1.82,1.98-3.25,2.5-1.49,.54-3.6,.82-6.29,.82h-12.41v-13.89h13.88c3.22,0,5.59,.65,7.04,1.93,1.45,1.28,2.15,2.88,2.15,4.87,0,1.37-.37,2.6-1.12,3.77Z"/>
    <rect class="cls-1" x="1650.71" y="1624.27" width="7.38" height="47.22"/>
    <path class="cls-1" d="M1685.36,1624.27l-18.13,47.22h7.85l5.04-13.91h18.3l5.35,13.91h8.34l-19.32-47.22h-7.43Zm10.69,27.07h-13.69l4.71-12.6c.78-2.11,1.44-4.27,1.97-6.44,.66,2.04,1.5,4.42,2.55,7.2l4.46,11.84Z"/>
    <polygon class="cls-1" points="1727.55 1664.78 1727.55 1624.27 1720.17 1624.27 1720.17 1671.5 1750.16 1671.5 1750.16 1664.78 1727.55 1664.78"/>
  </g>
</svg>