<?xml version="1.0" encoding="UTF-8"?>
<svg xmlns="http://www.w3.org/2000/svg" viewBox="0 0 680 120" role="img" aria-label="Consulting Now">
  <g fill="#fff">
    <path d="M56.3 79.2c-21.5 0-38.2-16.1-38.2-37.5S34.8 4.2 56.6 4.2c13.4 0 21.7 4.6 28.9 11.4L76.2 26c-5.9-5.5-11.8-8.5-19.8-8.5-13.1 0-22.6 10.7-22.6 24s9.2 24.3 22.6 24.3c8.9 0 14.3-3.5 20.3-9.1l9.3 9.2c-7.7 8.3-16.3 13.3-29.7 13.3Z"/>
    <path d="M130.4 79.2c-22.4 0-38.6-16.7-38.6-37.5s16.4-37.5 38.8-37.5 38.6 16.7 38.6 37.5-16.4 37.5-38.8 37.5Zm0-13.4c13.4 0 23.1-10.7 23.1-24.1s-9.9-24.3-23.3-24.3-23.1 10.7-23.1 24.1 9.9 24.3 23.3 24.3Z"/>
    <path d="M183.1 78V5.4h13.7l36.4 47.8V5.4h14.7V78h-12.5l-37.7-49.3V78h-14.6Z"/>
    <path d="M289.9 79c-11 0-22-3.8-30.7-11.6l8.9-10.6c6.5 5.6 13.1 9.2 22.1 9.2 7.6 0 12.4-3.5 12.4-8.7 0-5-2.8-7.7-15.8-10.7-14.9-3.6-24.2-8-24.2-21.7 0-12.5 10.4-20.9 24.9-20.9 10.6 0 19.1 3.2 26.5 9.2l-7.9 11.2c-6.1-4.6-12.2-7.1-18.8-7.1-7.2 0-11.3 3.6-11.3 8.2 0 5.4 3.2 7.8 16.6 11 14.8 3.6 23.4 8.9 23.4 21.2 0 13.7-10.7 21.3-26.1 21.3Z"/>
    <path d="M358.4 79.1c-19 0-31.2-10.9-31.2-32.6V5.4h15v40.6c0 13.3 6.8 19.8 16.4 19.8s16.3-6.1 16.3-19.3V5.4h15v40.5c0 22.5-12.7 33.2-31.5 33.2Z"/>
    <path d="M404.8 78V5.4h15v59h37v13.6h-52Z"/>
    <path d="M476.3 78V19.3h-22.8V5.4h60.6v13.9h-22.8V78h-15Z"/>
    <path d="M524.6 78V5.4h15V78h-15Z"/>
    <path d="M555.5 78V5.4h13.7l36.4 47.8V5.4h14.7V78h-12.5l-37.7-49.3V78h-14.6Z"/>
    <path d="M668.5 79.2c-22.7 0-38.3-16.1-38.3-37.5 0-20.6 16.1-37.5 38.2-37.5 13 0 21 3.6 28.6 10.1l-9.5 11.4c-5.7-4.8-10.7-7.9-19.6-7.9-12.9 0-22.4 10.9-22.4 23.9 0 14 9.4 24.3 23.6 24.3 6.6 0 12.6-2.1 16.8-5.3V48.2h-17.9V35.5h32.4v32c-7.6 6.5-18.5 11.7-31.9 11.7Z"/>
  </g>
</svg>
