<?xml version="1.0" encoding="UTF-8"?>
<svg xmlns="http://www.w3.org/2000/svg" viewBox="0 0 2000 2000">
  <path fill="#224ad6" d="M768.6,1213.49c76.61-52,116.97-123.24,117.8-216.82,2.07-232.47,170.44-428.4,400.66-467.29,214.77-36.29,435.47,88.44,515.2,290.58,23.57,59.75,35.25,121.35,35.12,185.52-.3,150.86-.09,301.72-.12,452.58,0,16.71-.1,16.71-16.69,15.9-110.62-5.36-207.61-102.5-209.93-213.04-1.82-86.93-.51-173.92-.63-260.89-.17-123.73-91.82-229.37-214.24-246.97-130.51-18.77-257.57,75.85-278.26,206.63-4.33,27.35-1.84,54.88-4.83,82.25-16.94,154.86-88.67,276.06-220.42,360.75-2.18,1.4-4.27,2.95-6.4,4.43-6.7-10.04-12.1-20.95-18.6-30.97-26.61-41-51.38-83.11-75.92-125.32-7.34-12.62-18.06-23.18-22.74-37.35Z"/>
  <path fill="#06174f" d="M768.6,1213.49c4.68,14.17,15.4,24.72,22.74,37.35,24.54,42.21,49.31,84.31,75.92,125.32,6.5,10.02,11.91,20.93,18.6,30.97-43.6,29.13-91.85,47.39-142.66,58.45-260.12,56.63-514.12-104.78-569.66-365.14-59.08-276.97,128.44-527.27,386.94-569.18,111.06-18,216.17,.2,314.63,55.5,9.26,5.2,9.81,8.73,4.4,17.46-35.46,57.31-70.48,114.89-105.16,172.67-4.84,8.07-7.94,9.81-16.98,4.95-156.24-84.05-345.77,15.39-366.45,191.95-15.71,134.09,85.45,259.78,219.65,274.25,56.9,6.14,108.9-6.83,158.02-34.56Z"/>
</svg>
